<svg width="358" height="70" viewBox="0 0 358 70" fill="none" xmlns="http://www.w3.org/2000/svg">
<path d="M0 1.96629C0 0.880337 1.81261 0 4.04859 0H355.871C358.107 0 359.92 0.880337 359.92 1.96629V70H0V1.96629Z" fill="#F25017"/>
<path d="M173.988 45.6997L175.613 43.4967L170.382 38.9565L175.613 34.4163L173.988 32.2131L167.488 37.8549C167.336 37.987 167.213 38.1546 167.128 38.3453C167.044 38.5361 167 38.7449 167 38.9565C167 39.1681 167.044 39.3769 167.128 39.5676C167.213 39.7582 167.336 39.9259 167.488 40.058L173.988 45.6997ZM186.013 32.2131L184.387 34.4163L189.618 38.9565L184.387 43.4967L186.013 45.6997L192.512 40.058C192.664 39.9259 192.788 39.7582 192.872 39.5676C192.957 39.3769 193 39.1681 193 38.9565C193 38.7449 192.957 38.5361 192.872 38.3453C192.788 38.1546 192.664 37.987 192.512 37.8549L186.013 32.2131ZM183.868 26.5672L178.669 51.9551L176.13 51.3429L181.33 25.9551L183.868 26.5672Z" fill="white"/>
</svg>
